<svg t="1713181413053" class="icon" viewBox="0 0 1024 1024" version="1.1" xmlns="http://www.w3.org/2000/svg" p-id="20150" width="200" height="200"><path d="M512 512h-23.466667l40.533334 64C768 580.266667 960 663.466667 960 768c0 106.666667-200.533333 192-448 192S64 874.666667 64 768c0-51.2 46.933333-98.133333 123.733333-132.266667l-29.866666-53.333333C59.733333 631.466667 0 695.466667 0 768c0 140.8 228.266667 256 512 256s512-115.2 512-256-228.266667-256-512-256z" fill="#1CBAF5" p-id="20151"></path><path d="M452.266667 893.866667c8.533333 14.933333 27.733333 23.466667 42.666666 14.933333 14.933333-8.533333 23.466667-27.733333 14.933334-42.666667L341.333333 512l2.133334-12.8c8.533333-27.733333 46.933333-98.133333 147.2-115.2 76.8-12.8 160 46.933333 320-64 160-113.066667 128-320 128-320s-57.6 85.333333-170.666667 85.333333-215.466667-85.333333-386.133333-85.333333C260.266667 0 183.466667 53.333333 149.333333 85.333333l-2.133333-2.133333c-8.533333-17.066667-27.733333-21.333333-42.666667-14.933333-8.533333 2.133333-17.066667 8.533333-21.333333 17.066666-2.133333 8.533333 0 21.333333 4.266667 29.866667l364.8 778.666667zM381.866667 68.266667C533.333333 74.666667 646.4 153.6 746.666667 149.333333c100.266667-4.266667 121.6-21.333333 121.6-21.333333s-44.8 128-164.266667 170.666667-151.466667-6.4-256 21.333333c-59.733333 14.933333-130.133333 85.333333-145.066667 102.4L172.8 147.2c10.666667-10.666667 91.733333-83.2 209.066667-78.933333z" fill="#1CBAF5" p-id="20152"></path></svg>