<svg t="1712986915953" class="icon" viewBox="0 0 1024 1024" version="1.1" xmlns="http://www.w3.org/2000/svg" p-id="13850" width="200" height="200"><path d="M329.766491 829.437448l3.93845 2.087378 166.990255 97.870468c3.899065 2.36307 8.546435 2.756915 12.681807 1.181535l2.402454-1.181535 166.990256-97.870468a45.13463 45.13463 0 0 1 62.2275 16.935333 46.867548 46.867548 0 0 1-12.957498 60.73089l-3.702143 2.481223-166.990255 97.870468a105.038446 105.038446 0 0 1-100.391076 3.229528l-5.868289-3.229528-166.990256-97.870468a46.867548 46.867548 0 0 1-16.659641-63.212113c5.631983-9.964277 14.729801-17.447331 25.521152-20.952551 10.791351-3.544604 22.527931-2.835684 32.807284 1.969224z m212.203655-558.275205l166.360103 97.082778c10.239968 5.986443 18.786404 14.572263 24.733463 24.969769 5.907674 10.397506 9.058434 22.17347 9.058433 34.146357v194.283709c0 11.972886-3.15076 23.74885-9.058433 34.146357-5.907674 10.358122-14.454109 18.983326-24.733463 24.969769l-166.360103 97.082778a66.95364 66.95364 0 0 1-67.505023 0l-166.360104-97.082778a67.898868 67.898868 0 0 1-24.694078-24.969769 68.844096 68.844096 0 0 1-9.058433-34.146357v-194.283709c0-11.972886 3.15076-23.74885 9.058433-34.146357 5.907674-10.358122 14.414725-18.983326 24.694078-24.969769l166.360104-97.082778a66.95364 66.95364 0 0 1 67.505023 0z m182.428977-135.876505l3.938449 2.087378 166.911487 97.831083a108.307359 108.307359 0 0 1 52.972145 86.764041l0.196922 6.813518v195.740936a46.552472 46.552472 0 0 1-13.272574 32.68913 45.56786 45.56786 0 0 1-32.295286 13.58765c-11.342734 0-22.291624-4.332294-30.680521-12.051655a46.35555 46.35555 0 0 1-14.690416-29.814062l-0.196923-4.411063V328.702989a15.675029 15.675029 0 0 0-5.395675-11.815349l-2.284301-1.49661-166.793333-97.870469a46.867548 46.867548 0 0 1-16.659641-63.212113 44.977092 44.977092 0 0 1 58.328436-18.983326h-0.078769z m-374.034541 19.02271a46.867548 46.867548 0 0 1-12.957499 60.73089l-3.702142 2.481223-166.911487 97.870469a15.359953 15.359953 0 0 0-7.443669 10.633813l-0.196923 2.756915v195.740936a46.591857 46.591857 0 0 1-13.272574 32.68913 45.646629 45.646629 0 0 1-32.295286 13.58765c-11.342734 0-22.291624-4.332294-30.680521-12.051655a46.35555 46.35555 0 0 1-14.690416-29.814062l-0.196922-4.411063V328.702989a108.307359 108.307359 0 0 1 47.537084-89.914801l5.671367-3.583989 166.911487-97.831083a45.095246 45.095246 0 0 1 62.227501 16.935332z" fill="#4D81B7" p-id="13851"></path><path d="M984.612476 741.373719c0-53.050914-42.338331-96.058781-94.522786-96.058782s-94.522786 43.007868-94.522786 96.098166c0 52.93276 42.338331 95.940628 94.522786 95.940628S984.612476 794.385248 984.612476 741.373719zM228.430188 741.373719c0-53.050914-42.338331-96.058781-94.522787-96.058782S39.384615 688.322805 39.384615 741.452488c0 52.93276 42.338331 95.940628 94.522786 95.940628s94.522786-43.007868 94.522787-95.980013zM606.127487 95.980012C606.127487 43.007868 563.789156 0 511.604701 0s-94.522786 43.007868-94.522786 95.980012c0 53.050914 42.338331 96.058781 94.522786 96.058782s94.522786-43.007868 94.522786-96.058782z" fill="#85BBFB" p-id="13852"></path></svg>