<svg t="1712987233001" class="icon" viewBox="0 0 1024 1024" version="1.1" xmlns="http://www.w3.org/2000/svg" p-id="14882" width="200" height="200"><path d="M512 512m-512 0a512 512 0 1 0 1024 0 512 512 0 1 0-1024 0Z" fill="#9254DE" opacity=".15" p-id="14883"></path><path d="M616.896 655.296c0 17.877333 4.096 34.773333 11.413333 49.92l-105.130666 59.946667a21.333333 21.333333 0 0 1-21.141334 0l-105.173333-59.946667a114.282667 114.282667 0 0 0 11.392-53.013333l93.781333 53.482666a21.333333 21.333333 0 0 0 21.12 0l93.802667-53.482666-0.064 3.093333z m69.333333-105.898667v-122.453333a21.333333 21.333333 0 0 0-10.730666-18.538667l-79.424-45.290666a115.84 115.84 0 0 0 28.16-43.434667l103.466666 58.986667a21.333333 21.333333 0 0 1 10.752 18.538666v142.229334a118.314667 118.314667 0 0 0-52.138666 10.048 0.085333 0.085333 0 0 1-0.064-0.085334z m-399.424-9.984v-142.229333a21.333333 21.333333 0 0 1 10.752-18.517333l105.386667-60.117334a115.306667 115.306667 0 0 0 27.733333 43.690667l-80.96 46.144a21.333333 21.333333 0 0 0-10.773333 18.538667v122.538666a118.144 118.144 0 0 0-52.138667-10.026666v-0.021334z m225.792-180.373333c-28.8 0-52.138667-23.061333-52.138666-51.52S483.797333 256 512.597333 256c28.8 0 52.16 23.061333 52.16 51.52s-23.36 51.52-52.16 51.52zM329.813333 679.701333c-28.8 0-52.138667-23.061333-52.138666-51.52s23.338667-51.52 52.138666-51.52c28.8 0 52.16 23.061333 52.16 51.52s-23.36 51.52-52.16 51.52z m365.056 0c-28.8 0-52.16-23.061333-52.16-51.52s23.36-51.52 52.16-51.52c28.8 0 52.138667 23.061333 52.138667 51.52s-23.338667 51.52-52.138667 51.52zM523.477333 388.266667l91.584 52.245333a21.333333 21.333333 0 0 1 10.752 18.517333v104.021334a21.333333 21.333333 0 0 1-10.752 18.538666l-91.584 52.224a21.333333 21.333333 0 0 1-21.12 0l-91.584-52.224a21.333333 21.333333 0 0 1-10.752-18.538666v-104.042667a21.333333 21.333333 0 0 1 10.752-18.517333l91.562667-52.245334a21.333333 21.333333 0 0 1 21.12 0v0.021334z" fill="#9254DE" p-id="14884"></path></svg>