<?xml version="1.0" standalone="no"?><!DOCTYPE svg PUBLIC "-//W3C//DTD SVG 1.1//EN" "http://www.w3.org/Graphics/SVG/1.1/DTD/svg11.dtd"><svg t="1707148292736" class="icon" viewBox="0 0 1054 1024" version="1.1" xmlns="http://www.w3.org/2000/svg" p-id="2677" xmlns:xlink="http://www.w3.org/1999/xlink" width="131.75" height="128"><path d="M19.365647 0m180.705882 0l662.588236 0q180.705882 0 180.705882 180.705882l0 662.588236q0 180.705882-180.705882 180.705882l-662.588236 0q-180.705882 0-180.705882-180.705882l0-662.588236q0-180.705882 180.705882-180.705882Z" fill="#32A6FF" p-id="2678"></path><path d="M839.077647 244.103529c15.721412 0 23.582118 7.830588 23.582118 23.582118v552.056471c0 15.721412-7.860706 23.582118-23.582118 23.582117H223.653647C207.932235 843.294118 200.071529 835.463529 200.071529 819.742118V267.685647c0-15.721412 7.860706-23.582118 23.582118-23.582118l406.226824-0.030117-0.030118 1.174588c0 30.027294 20.600471 55.265882 48.489412 62.464l0.060235 269.552941c0 66.831059-49.392941 120.982588-110.320941 121.072941-54.151529 0-99.207529-43.128471-108.42353-99.719529l22.678589 0.210823c12.438588 0.120471 20.690824-16.805647 15.269647-31.292235l-23.853177-64.542117a14.034824 14.034824 0 0 0-4.698353-6.475295l-2.319059-1.445647a12.950588 12.950588 0 0 0-15.751529 4.306824l-1.325176 2.258823a16.624941 16.624941 0 0 0-0.421647 1.144471l-24.877177 64.030118a26.804706 26.804706 0 0 0 2.710588 24.816941c6.656 78.998588 67.282824 141.040941 141.010824 141.040941 78.125176 0 141.673412-69.692235 141.673412-155.407059l0.030117-269.251765c27.105882-6.415059 47.616-29.726118 49.633883-58.157176l0.150588-4.608-0.060235-1.174588h79.570823z m-185.825882 142.938353H232.538353v50.688h420.743529a4.999529 4.999529 0 0 0 4.758589-3.403294l0.271058-1.596235v-40.688941a4.999529 4.999529 0 0 0-4.999529-4.99953z m176.971294 0h-93.515294a3.252706 3.252706 0 0 0-2.95153 1.92753l-0.301176 1.234823v44.272941l0.271059 1.264942c0.301176 0.783059 0.933647 1.415529 1.716706 1.746823l1.264941 0.240941h93.515294v-50.688zM297.351529 301.236706a27.738353 27.738353 0 0 0-27.617882 24.455529l-0.180706 3.222589a27.708235 27.708235 0 0 0 27.798588 27.648 27.738353 27.738353 0 0 0 27.617883-24.425412l0.180706-3.222588a27.708235 27.708235 0 0 0-27.798589-27.678118z m98.243765 0a27.738353 27.738353 0 0 0-27.617882 24.455529l-0.180706 3.222589a27.708235 27.708235 0 0 0 27.798588 27.648 27.738353 27.738353 0 0 0 27.617882-24.425412l0.180706-3.222588a27.708235 27.708235 0 0 0-27.798588-27.678118z" fill="#FFFFFF" p-id="2679"></path><path d="M662.256941 245.248c0 17.799529 14.546824 32.256 32.466824 32.256 17.92 0 32.436706-14.456471 32.436706-32.256 0-17.829647-14.516706-32.256-32.436706-32.256s-32.466824 14.456471-32.466824 32.225882z" fill="#FFFFFF" p-id="2680"></path></svg>
